<svg id="Layer_1" data-name="Layer 1" xmlns="http://www.w3.org/2000/svg" viewBox="0 0 16 16"><defs><style>.cls-1{fill:#a85cff;}</style></defs><title>favicon_purple</title><path class="cls-1" d="M0,8v8H16V8.05c0-4.38,0-8,0-8S14.33,0,8,0H0ZM7.43.35l-.37,0A6.75,6.75,0,0,0,5.89.65,3.83,3.83,0,0,0,5.1.93L4.85,1a.62.62,0,0,0-.19.09s0,0,.06,0,0,0,0,0a.16.16,0,0,1-.11,0,.81.81,0,0,0-.28.08c-.14.06-.19.11-.19.16a.08.08,0,0,1,0,.09s0,0,0,0,0,0,0-.07a.14.14,0,0,0-.12,0l-.09.06-.32.17c-.16.11-.35.22-.42.26S3,2,3,2.06a0,0,0,0,1,0,0,.89.89,0,0,0-.45.36c0,.09-.11.13-.11.06s0,0,0,0,0,0,0,0a2.55,2.55,0,0,0-.79.66s0,0-.06,0a1,1,0,0,0-.27.19c-.16.14-.2.2-.16.23a.2.2,0,0,1,0,.08s0,0-.05,0-.07-.06-.2.08a4,4,0,0,0-.56.6.13.13,0,0,1-.07.08c-.07,0-.09,0-.1,0s0-1,0-2.07V.3H3.94C6.33.31,7.56.32,7.43.35Zm8.24.88c0,.52,0,1.52,0,2.23s0,1.29,0,1.29a.65.65,0,0,1-.26-.26s-.14-.16-.18-.13,0,0,0,0,0-.1-.62-.75c-.47-.5-.53-.55-.58-.49s0,0,0,0-.16-.27-.7-.71A3.2,3.2,0,0,1,13,2.07l-.21-.14s-.08,0-.08-.05-.07-.08-.17-.14l-.24-.14c-.5-.32-.62-.38-.67-.37a0,0,0,0,1-.05,0c0-.07-.32-.2-.42-.18s-.07,0,0,0,0-.1-.09-.07a.09.09,0,0,1-.1,0,2,2,0,0,0-.76-.3c-.08,0-.11,0-.08,0s0,0,0,0A.87.87,0,0,1,9.79.5a1,1,0,0,0-.29,0,.62.62,0,0,1-.22,0A2.21,2.21,0,0,0,8.91.34c-.19,0,1.07,0,3.23,0h3.52ZM4.72,2.66s0,.1,0,.11a.31.31,0,0,1,0,.18,2.76,2.76,0,0,0,.15.94,0,0,0,0,1,.05,0s0,0,0,0,0,0,0,.27A2.14,2.14,0,0,1,5,4.62c0,.1,0,.24.07.3s0,.21.06.33a1,1,0,0,0,.06.27.91.91,0,0,1,.06.28.75.75,0,0,0,.06.26.52.52,0,0,1,.05.21c0,.14.08.44.19.88,0,.06,0,.11.07.11s0,0,0,.17,0,.23.14.13.06,0,0,0-.07,0,0,0,0,0,.07,0,.12,0,.26-.06.2-.11.16-.15,0,0,0,0a.08.08,0,0,1,.06,0,1.87,1.87,0,0,0,.59-.31.08.08,0,0,1,.07,0s.06,0,.06,0,0,0,.11-.08a.82.82,0,0,0,.2-.12.4.4,0,0,1,.12-.08,12.72,12.72,0,0,0,1.09-.77c.17-.13.29-.25.28-.28s0,0,0,0A.33.33,0,0,0,9,5.43a4.21,4.21,0,0,0,.57-.55s.05-.07.1-.1.1-.09.09-.11,0,0,0,0,.13-.05.13-.11,0,0,0,0,.3-.27.28-.32,0,0,.06,0,.08,0,.07-.08,0,0,0,0,.05,0,.05-.07,0-.08.06-.06,0,0,0-.07,0-.08,0,0,0,0,.06,0a0,0,0,0,0,0-.07s0,0,0-.05,0,0,0,0,.07,0,.16-.11a.39.39,0,0,0,.07-.19s0,0,0,0,.06,0,0,0,0-.05,0-.05a0,0,0,0,0,.05,0s0-.06,0-.06.05,0,.06-.09,0-.1.06-.1,0,0,0-.08,0-.09,0-.12,0,0,0,0a.07.07,0,0,0,0,.09s.06,0,.05-.13,0,0,0,0,.05,0,0-.05a.14.14,0,0,1,.07-.1c.1,0,.11-.12,0-.09s-.07,0,0,0,.17-.07.27.06a1.57,1.57,0,0,0,.15.19l.21.24.21.24c.07.09.06.29,0,.26s-.06,0,0,0,0,.06,0,.06,0,0,0,0,0,.06-.05.06a2.6,2.6,0,0,0-.67.57s0,0,0,0,0,0,0,.06,0,0,0,0,0,0,0,0,0,.06,0,0-.18.21-.14.26,0,0,0,0-.3.37-.27.45,0,0,0,0,0,0,0,.08,0,.08,0,.06-.09.09-.06.14,0,0,0,0a6,6,0,0,0-.47,1.39l0,.21c0,.07,0,.11,0,.11s0,.12,0,.15a5.67,5.67,0,0,0,0,1.88s0,.07,0,.15,0,.12,0,.08,0,0,0,.08a1,1,0,0,0,.21.52.62.62,0,0,1,.08.12,2.41,2.41,0,0,0,.55.45.2.2,0,0,0,.15,0c.06,0,.07,0,.05,0s0,.07,0,.08,0,0,0,0,0,0,0,0a0,0,0,0,1,0,0c0,.06.36.15.47.11s.07,0,0,0,0,0,.05,0,.1,0,.09,0a4,4,0,0,0,1.18,0c.46-.05,1.06-.14,1.32-.2s.24,0,.2.11,0,.09,0,.06,0,0,0,.07a.6.6,0,0,0,0,.28,1.57,1.57,0,0,1,.06.23c0,.05-.18.11-.42.12a2.1,2.1,0,0,0-.37,0l-.29,0c-.07,0-.13,0-.13,0a4.29,4.29,0,0,1-.76.05,6.7,6.7,0,0,1-1.08-.05,2,2,0,0,0-.41,0c-.05,0-.06,0,0,0s-.31-.14-.42-.1-.06,0,0,0,0,0,0-.08-.11,0-.13,0,0,0,0,0,0,0,0,0-.06,0-.06,0-.08-.06-.17-.1a2.8,2.8,0,0,1-.8-.72c0-.06-.06-.09-.09-.08s0,0,0,0,0-.08,0-.13a2.59,2.59,0,0,1-.29-.83,13.46,13.46,0,0,1,0-3c0-.11,0-.13,0-.09a.26.26,0,0,0,0,.19c0,.1,0,.11,0,0l0-.1a7.53,7.53,0,0,0-.77.72s0,0,0,0-.09,0-.13.06-.08.07,0,.07,0,0,0,.07-.13.07,0,0,0,0-.2.09a.9.9,0,0,1-.21.16.15.15,0,0,0-.08,0s-.26.17-.5.33a5.49,5.49,0,0,1-.51.3,1.11,1.11,0,0,1-.2.11c-.36.17-.43.23-.36.29A.22.22,0,0,1,6,9c0,.13.08.38.12.36s0,0,0,.05a.75.75,0,0,0,.07.29,1.67,1.67,0,0,1,.08.29.18.18,0,0,0,0,.12.17.17,0,0,1,.06.12,1.66,1.66,0,0,0,.19.48s0,0,0,.06,0,.24.11.28,0,0,0,.06,0,.05,0,.05.06.07.09.17a3.11,3.11,0,0,0,.12.3.57.57,0,0,1,.07.13l.06.13a.58.58,0,0,1,.06.17.06.06,0,0,0,.06.05s0,0,0,0,.11.36.14.29,0,0,0,0a.24.24,0,0,0,.06.19.31.31,0,0,1,.08.15.74.74,0,0,0,.08.17c.07.09.08.13,0,.15a2.4,2.4,0,0,1-.48,0c-.34,0-.43,0-.47-.07s0-.06-.06,0a.17.17,0,0,0,.05.12s0,.05,0,.05-.11-.13-.08-.23,0-.23-.06-.2,0,0,0-.05,0,0,0,0,0,0,0,0a.12.12,0,0,0,0-.11.48.48,0,0,1-.09-.14.67.67,0,0,0-.1-.21.44.44,0,0,1-.08-.16,1.47,1.47,0,0,0-.14-.32,2.21,2.21,0,0,1-.14-.31.88.88,0,0,0-.17-.32s0,0,0-.06,0-.07,0-.08a.07.07,0,0,1,0-.08,1.35,1.35,0,0,0-.18-.52,1.2,1.2,0,0,1-.08-.25c0-.12-.07-.21-.09-.2s0,0,0,0A2.05,2.05,0,0,0,5,9.17c-.07,0-.17.09-.15.12s0,0,0,0a5.13,5.13,0,0,0-1.08.37,2.17,2.17,0,0,0-.12.47,7.33,7.33,0,0,0-.08,1.38c0,.52,0,1.05,0,1.19s0,.28,0,.32,0,.08-.35.11l-.43,0a.1.1,0,0,0-.08,0c-.09.12-.15-.5-.13-1.31,0-.29,0-.65,0-.8a1.09,1.09,0,0,1,0-.26s0,0,0-.07c0-.22.06-.53.07-.55s0-.05,0-.06,0,0,0-.07,0-.18-.07-.13-.81.24-.92.25a.34.34,0,0,0-.15.06s-.06,0-.07,0a.83.83,0,0,0-.42.13s-.05,0-.08-.06S1,10.27,1,10.27s0,0,0,0a.87.87,0,0,0-.07-.3L.86,9.66a.87.87,0,0,1,.3-.13,1,1,0,0,0,.29-.13s.14-.09.2-.08l.12,0a.6.6,0,0,1,.14,0c.05,0,0,0,0-.06s-.07,0,0,0l.13,0s.15,0,.4-.1a2.56,2.56,0,0,0,.38-.16L3,8.84c.17-.05.17-.06.13-.17s0-.15,0-.13.06,0,.06-.19a.46.46,0,0,1,0-.23,2,2,0,0,0,.11-.69s0,0,0,0,.05,0,.05,0a4.32,4.32,0,0,1,.14-.61,3.72,3.72,0,0,0,.12-.66.56.56,0,0,1,.06-.21c0-.08,0-.12,0-.16s0-.06,0,0,.06,0,.06,0a5.21,5.21,0,0,1,.14-.55c.07-.28.15-.62.17-.76a.88.88,0,0,1,.07-.26,1.48,1.48,0,0,0,.13-.61s0-.08,0-.06.06-.05.09-.17,0-.21,0-.21a.07.07,0,0,1,0-.06s0,0,.06,0,0,0,0,0a0,0,0,0,1,0,0s0,0,0-.11,0-.11,0-.1.08-.15,0-.23,0-.06,0,0,0,0,0,0,0,0,.06.06A.43.43,0,0,1,4.72,2.66Zm-4,9.58a0,0,0,0,1,.06,0s0,0,0,.06,0,.14.53.62a8.43,8.43,0,0,0,1.33,1s0,0,0,0,.08.1.21.18a1.12,1.12,0,0,1,.26.18s.05,0,0-.06l.06-.08c.06,0,.07,0,0,0a.54.54,0,0,0,0,.11,1.43,1.43,0,0,0,.57.38s.06,0,0,0,.32.2.4.17.06,0,0,0,.37.24.47.21.06,0,0,0,0,.07.19.14l.3.1a.13.13,0,0,1,.09,0,.11.11,0,0,0,.12,0c.06,0,.09,0,.08,0s0,.05.44.15.19.12-1,.1c-.68,0-2,0-2.92,0H.3V11.91l.18.19C.59,12.22.67,12.27.69,12.24Zm15,2.47v.95h-3a20.65,20.65,0,0,1-3,0s0,0,0,0a2.93,2.93,0,0,0,.76-.22s0,0,.1,0,.32-.08.26-.12,0,0,.06,0,.11,0,.09,0,0,0,0,0h.13c.07,0,.08,0,0-.07s0,0,0,0a2.05,2.05,0,0,0,.76-.35s0,0,0,0a1.22,1.22,0,0,0,.51-.25s0,0,.07,0,0,0,0,0,0,0,0,0,.22-.05.22-.09,0,0,0,0a7,7,0,0,0,1-.68s0,0,.05,0a.34.34,0,0,0,.17-.11c0-.07.11-.12.13-.11s.37-.32.35-.36,0,0,0,0,.67-.52.63-.58,0,0,0,0,.14-.08.25-.21l.19-.22v.92C15.69,13.35,15.69,14.19,15.66,14.71Z"/><path class="cls-1" d="M4.35,7.12c0,.19-.11.47-.15.63s-.08.37-.1.46a.47.47,0,0,0,0,.15l.29-.12a1.74,1.74,0,0,1,.33-.12c.08,0,.09-.13,0-.31s-.06-.16-.08-.06,0,0,0-.11a.83.83,0,0,0-.07-.35.36.36,0,0,1-.05-.2s0-.07,0-.07,0,0,0-.09,0-.1,0-.11S4.39,6.94,4.35,7.12Z"/></svg>