<?xml version="1.0" standalone="no"?>
<!DOCTYPE svg PUBLIC "-//W3C//DTD SVG 20010904//EN"
 "http://www.w3.org/TR/2001/REC-SVG-20010904/DTD/svg10.dtd">
<svg version="1.0" xmlns="http://www.w3.org/2000/svg"
 width="1000.000000pt" height="2550.000000pt" viewBox="0 0 1650.000000 2550.000000"
 preserveAspectRatio="xMidYMid meet">
<metadata>
Created by potrace 1.15, written by Peter Selinger 2001-2017
</metadata>
<g transform="translate(0.000000,2550.000000) scale(0.100000,-0.100000)"
fill="#000000" stroke="none">
<path d="M5556 23112 l-1979 -2 6 -1448 c4 -796 7 -1750 7 -2119 l0 -673 1990
0 1990 0 -5 1103 c-3 606 -7 1558 -10 2116 -2 558 -7 1017 -12 1020 -4 3 -899
5 -1987 3z m-138 -89 c-32 -2 -58 -7 -58 -11 0 -4 -10 -8 -22 -9 -13 -1 -36
-4 -53 -7 -16 -3 -47 -9 -69 -12 -21 -4 -34 -9 -28 -13 6 -3 -6 -7 -27 -7 -63
-2 -417 -137 -405 -155 2 -4 -11 -11 -31 -15 -20 -3 -32 -10 -28 -17 3 -5 1
-7 -4 -4 -13 8 -116 -47 -106 -56 3 -4 -1 -7 -11 -7 -16 0 -59 -24 -82 -45 -6
-6 -29 -19 -52 -30 -23 -11 -42 -26 -42 -32 0 -7 -3 -12 -7 -11 -14 4 -54 -23
-48 -33 4 -5 0 -9 -8 -9 -19 0 -67 -39 -49 -40 7 0 10 -5 6 -11 -5 -8 -9 -8
-14 1 -6 9 -42 -15 -121 -82 -63 -53 -124 -106 -136 -119 -12 -13 -35 -35 -52
-49 -17 -13 -31 -30 -31 -37 0 -7 -6 -13 -13 -13 -13 0 -67 -50 -67 -61 0 -3
-26 -32 -57 -65 -32 -33 -74 -78 -93 -101 -19 -23 -37 -38 -40 -33 -3 5 -7
253 -8 550 l-3 540 908 -2 c499 -1 882 -3 851 -5z m2054 -310 c4 -630 3 -853
-6 -856 -5 -1 -14 7 -20 17 -22 38 -49 65 -59 59 -6 -3 -7 -1 -3 5 4 6 -4 23
-16 38 -68 81 -81 93 -89 88 -5 -3 -6 1 -3 9 8 22 -278 323 -406 427 -30 25
-68 57 -85 72 -16 16 -33 28 -37 28 -4 0 -21 13 -38 29 -18 16 -44 35 -58 42
-15 8 -29 17 -32 21 -13 17 -124 77 -133 71 -6 -3 -7 -1 -4 4 4 6 -11 20 -33
32 -22 11 -40 17 -40 13 0 -4 -4 -2 -8 4 -6 10 -175 94 -189 94 -3 0 -19 7
-36 15 -67 30 -231 71 -314 78 -13 1 -23 5 -23 9 0 4 -26 9 -57 11 -32 2 335
4 815 5 l872 2 2 -317z m-2703 -306 c0 -18 4 -68 10 -112 7 -44 14 -110 18
-147 3 -38 10 -68 15 -68 6 0 8 -7 5 -15 -8 -20 53 -413 70 -455 3 -8 8 -35
10 -60 2 -24 7 -47 11 -50 5 -3 8 -14 9 -25 0 -11 7 -55 16 -97 10 -42 17 -86
17 -98 0 -11 4 -20 10 -20 5 0 7 -6 4 -14 -6 -15 12 -55 30 -69 8 -6 8 -10 -1
-13 -10 -5 -8 -59 2 -72 7 -8 134 71 128 80 -3 7 -1 8 5 4 12 -7 133 54 126
65 -2 4 7 10 21 13 14 4 25 11 25 16 0 6 5 10 11 10 12 0 103 60 107 72 2 4 8
8 14 8 6 0 42 23 80 51 51 39 66 54 56 61 -9 7 -7 8 7 4 13 -4 31 4 52 22 18
15 68 56 112 92 44 36 80 70 80 77 1 6 9 14 19 17 9 3 35 24 57 47 22 22 50
50 63 62 12 11 22 27 22 34 0 7 7 13 16 13 9 0 14 6 11 13 -3 8 -1 20 5 28 8
11 9 10 4 -3 -3 -10 -4 -18 -2 -18 5 0 106 119 131 154 11 16 25 33 30 40 24
27 45 67 40 76 -3 5 1 7 9 4 10 -4 24 11 45 48 16 29 34 58 39 64 18 21 36 59
33 73 -1 7 2 10 8 7 9 -6 27 30 23 47 -1 4 3 6 8 5 6 -2 20 20 32 47 12 28 23
52 25 54 5 7 66 -66 138 -163 42 -59 61 -92 54 -97 -6 -4 -9 -12 -5 -18 5 -7
1 -8 -10 -4 -13 5 -16 3 -11 -10 4 -12 2 -14 -10 -10 -12 5 -15 2 -10 -10 4
-11 2 -14 -9 -10 -13 5 -18 -6 -15 -34 1 -6 -3 -14 -9 -18 -6 -4 -7 1 -3 12 6
16 5 16 -10 4 -9 -7 -14 -17 -11 -22 3 -5 -3 -6 -12 -2 -14 5 -16 3 -11 -11 5
-12 2 -16 -8 -14 -16 3 -105 -90 -105 -110 0 -7 -4 -10 -10 -7 -5 3 -10 -1
-10 -9 0 -9 -5 -16 -11 -16 -5 0 -8 -4 -5 -8 3 -5 -8 -24 -24 -43 -29 -34 -40
-67 -18 -53 7 4 8 3 4 -5 -4 -6 -12 -8 -18 -5 -6 4 -8 -1 -4 -14 4 -11 2 -23
-4 -27 -5 -3 -10 0 -10 7 -1 16 -30 -35 -47 -81 -6 -19 -9 -39 -6 -44 4 -6 1
-7 -7 -2 -9 6 -10 2 -5 -15 5 -14 3 -20 -3 -16 -12 7 -74 -182 -97 -299 -9
-44 -21 -105 -28 -135 -7 -30 -12 -87 -12 -127 0 -39 -3 -69 -7 -66 -21 12 -1
-339 24 -417 26 -82 31 -92 40 -78 7 9 8 5 4 -11 -7 -32 49 -109 118 -162 28
-22 56 -43 61 -47 6 -4 18 -6 29 -4 10 2 16 0 12 -6 -8 -14 101 -51 204 -68
130 -23 289 -12 577 39 77 14 89 9 77 -30 -5 -16 -4 -16 6 -3 9 12 10 8 6 -20
-3 -19 1 -60 9 -90 10 -38 11 -56 3 -61 -5 -4 -49 -12 -97 -18 -47 -7 -97 -14
-111 -17 -69 -12 -108 -15 -265 -21 -131 -4 -191 -2 -259 10 -49 9 -93 14 -97
11 -4 -2 -9 -1 -11 3 -3 9 -122 53 -152 57 -11 1 -22 8 -24 14 -2 7 -20 19
-40 29 -54 25 -136 97 -186 164 -24 32 -47 55 -51 51 -5 -4 -5 -1 0 7 4 7 3
16 -1 20 -15 10 -42 80 -66 166 -18 69 -22 114 -25 320 -4 218 7 481 23 545
l7 25 -22 -23 c-12 -12 -19 -27 -16 -32 4 -6 2 -9 -3 -8 -13 4 -94 -71 -87
-81 2 -5 -1 -8 -9 -7 -7 0 -36 -19 -62 -44 -62 -57 -137 -118 -186 -151 -21
-14 -35 -29 -31 -32 3 -4 -1 -7 -10 -7 -9 0 -17 -4 -17 -10 0 -5 -6 -10 -13
-10 -8 0 -39 -18 -70 -40 -30 -22 -58 -40 -62 -40 -3 0 -11 -5 -18 -11 -7 -5
-50 -32 -97 -59 -111 -64 -112 -65 -100 -96 6 -14 12 -38 15 -55 3 -16 16 -62
29 -102 13 -40 27 -88 31 -107 4 -19 17 -53 28 -75 11 -22 22 -49 23 -60 9
-59 17 -84 27 -78 5 3 7 2 4 -4 -9 -14 14 -83 26 -76 6 3 7 1 3 -6 -7 -11 51
-170 67 -182 4 -3 7 -10 6 -15 -3 -15 22 -74 32 -74 6 0 9 -6 7 -12 -4 -22 13
-59 24 -52 5 3 9 -2 8 -12 -4 -32 0 -40 11 -24 8 12 9 11 5 -6 -4 -13 8 -48
34 -99 22 -43 39 -79 37 -81 -1 -2 -53 -4 -115 -5 -124 -2 -131 1 -146 64 -4
16 -11 25 -17 21 -6 -3 -10 0 -9 7 3 19 -11 59 -19 59 -4 0 -13 20 -20 45 -7
25 -17 45 -22 45 -5 0 -12 12 -15 28 -4 15 -19 54 -34 87 -42 92 -105 239
-106 248 -1 4 -2 14 -3 23 0 9 -6 12 -13 8 -8 -5 -9 -2 -5 10 4 9 -2 36 -12
59 -11 23 -25 63 -32 89 -7 26 -17 44 -23 41 -5 -3 -6 -1 -2 5 4 6 -3 46 -14
89 -12 43 -24 88 -27 101 -6 24 -15 27 -43 12 -12 -7 -17 -17 -14 -28 5 -14 4
-14 -4 -3 -9 12 -20 11 -74 -11 -35 -15 -80 -32 -100 -38 -21 -6 -38 -16 -38
-20 0 -5 -7 -6 -17 -3 -10 4 -14 2 -10 -4 5 -7 0 -9 -13 -6 -14 4 -20 -1 -23
-18 -3 -13 -10 -51 -17 -84 -27 -142 -31 -209 -27 -434 5 -206 9 -281 20 -365
2 -17 -5 -20 -53 -23 -30 -2 -81 -7 -113 -12 -32 -4 -60 -4 -63 0 -12 19 -17
140 -14 309 2 102 4 234 4 294 1 61 2 102 4 93 7 -37 20 -13 27 50 4 36 9 72
12 80 8 22 -28 29 -43 8 -8 -10 -14 -13 -14 -7 0 7 -5 12 -11 12 -5 0 -7 -5
-3 -12 4 -7 3 -8 -5 -4 -6 4 -25 4 -42 1 -22 -5 -29 -11 -24 -22 4 -13 3 -14
-10 -3 -12 10 -28 8 -82 -9 -38 -12 -87 -24 -110 -28 -24 -3 -43 -10 -43 -14
0 -5 -12 -9 -28 -9 -26 0 -29 4 -51 88 -13 48 -26 93 -29 99 -2 7 9 17 24 23
16 6 38 15 49 20 11 5 37 14 58 20 20 6 37 16 37 22 0 5 5 8 12 6 7 -3 60 15
118 39 58 25 140 58 183 76 72 29 77 33 78 61 0 17 3 45 5 61 3 17 6 41 8 55
1 14 6 32 9 40 4 8 13 56 22 105 8 50 19 105 25 124 5 19 8 37 5 41 -2 3 3 26
12 51 20 55 42 179 36 196 -3 7 -1 13 5 13 14 0 22 52 10 74 -7 13 -7 16 1 12
6 -4 14 9 19 31 45 187 76 322 78 344 1 14 7 36 14 48 6 13 9 29 6 37 -3 8 -2
14 3 14 11 0 32 97 24 116 -4 11 -2 15 4 11 16 -10 36 92 22 110 -7 7 -9 16
-5 20 3 3 6 0 6 -7 0 -9 3 -10 9 -4 13 13 43 133 36 144 -3 6 -1 10 4 10 6 0
11 8 11 18 0 11 5 8 15 -11 8 -16 15 -43 14 -60z m-869 -2697 c124 -124 142
-140 270 -245 47 -39 91 -76 98 -82 7 -7 17 -13 22 -13 5 0 15 -7 23 -15 26
-25 151 -108 165 -108 6 0 10 -3 7 -5 -6 -6 33 -31 123 -79 42 -22 71 -32 85
-28 15 4 18 3 9 -3 -13 -9 2 -18 128 -75 34 -16 55 -14 45 4 -3 5 1 6 10 2 12
-4 13 -8 4 -13 -17 -11 27 -33 52 -27 10 3 22 0 26 -5 4 -7 1 -8 -7 -3 -9 5
-11 4 -6 -3 4 -7 20 -9 39 -6 24 4 28 3 17 -5 -13 -9 -13 -11 3 -12 9 -1 20
-2 25 -3 4 -1 22 -6 39 -10 18 -4 36 -12 39 -18 5 -8 -82 -9 -302 -5 -170 4
-497 7 -726 7 l-418 0 0 496 0 497 57 -64 c31 -35 109 -116 173 -179z m3580
-246 c0 -263 0 -486 0 -494 0 -13 -90 -15 -746 -17 -525 -1 -744 2 -742 9 2 6
19 12 38 14 19 2 44 8 55 13 11 5 54 21 95 34 41 14 91 33 110 42 34 16 34 16
5 10 -24 -4 -27 -3 -12 5 9 6 26 8 37 5 32 -10 337 146 325 166 -4 5 0 6 8 3
22 -8 322 201 311 217 -3 5 1 6 9 3 8 -3 23 6 35 20 11 14 24 26 29 26 16 0
44 36 36 45 -5 4 -2 5 4 1 8 -4 23 3 36 16 13 13 52 47 86 77 37 33 60 60 57
68 -3 8 -1 11 4 8 10 -6 130 103 130 118 0 5 -5 5 -12 1 -7 -4 -8 -3 -4 5 4 6
12 8 18 5 6 -4 13 -2 17 3 16 26 65 82 68 80 2 -2 3 -219 3 -483z"/>
<path d="M4676 21232 c-10 -42 -22 -90 -27 -107 -4 -16 -15 -68 -24 -115 -9
-47 -18 -93 -21 -102 -4 -14 4 -13 58 10 35 15 65 30 66 34 2 5 9 8 15 8 38 1
39 15 10 131 -15 63 -31 116 -34 119 -3 3 -6 22 -6 44 -2 69 -18 59 -37 -22z"/>
</g>
</svg>
