<?xml version="1.0" encoding="utf-8"?>
<!-- Generator: Adobe Illustrator 24.0.3, SVG Export Plug-In . SVG Version: 6.00 Build 0)  -->
<svg version="1.1" id="Layer_1" xmlns="http://www.w3.org/2000/svg" xmlns:xlink="http://www.w3.org/1999/xlink" x="0px" y="0px"
	 viewBox="0 0 397 426" style="enable-background:new 0 0 397 426;" xml:space="preserve">
<style type="text/css">
	.st0{fill:#A85CFF;}
</style>
<g transform="translate(0.000000,426.000000) scale(0.100000,-0.100000)">
	<path class="st0" d="M0,2130V0h1985h1985l-3,2117.9c-1,1164.5-5,2123-7,2130c-3,9-408.8,12.1-1982,12.1H0V2130z M1844.1,4167.6
		c-27-5-68-11.1-90-13.1c-85-9-150.9-25.1-289.9-69.3c-141.9-46.2-179.9-59.3-195.9-72.3c-8-6-35-18.1-61-28.1
		c-27-10-48-20.1-48-23.1s7-2,16,1c8,3,12,2,9-4s-16-10-28-10c-12,0-43-10-69-22.1c-35-17.1-47-28.1-45-42.2c1-11.1-5-21.1-13-23.1
		c-12-4-12-3-1,5c10,7,10,11.1,1,17.1c-6,4-19,0-29-9s-20-16.1-24-16.1c-3,0-39-21.1-78-47.2c-39-27.1-86-57.3-104.9-67.3
		c-19-11.1-34-25.1-34-33.2c0-7-6-13.1-13-13.1c-24,0-104.9-70.3-110.9-96.5c-6-23.1-26-34.2-26-14.1c0,6,5,10,12,10c6,0,8,3,5,6
		c-12,12.1-196.9-153.7-196.9-175.8c0-6-6-11.1-13-11.1c-7,0-37-23.1-67-51.2c-40-38.2-50-53.2-41-62.3c6-6,11-15.1,11-21.1
		c0-5-6-2-13,9c-13,17.1-16,16.1-50-21.1c-103.9-112.5-136.9-150.7-136.9-159.8c0-6-9-16.1-19-22.1c-17-10-21-10-24,5
		c-3,9-5,258.2-6,552.6l-2,534.5l912.5-1C1572.2,4177.6,1876.1,4173.6,1844.1,4167.6z M3879,3931.5c0-137.6,3-403.9,5-592.8
		c3-189.9,1-344.6-3-344.6c-11,0-63,56.3-63,68.3c0,14.1-36,43.2-44,35.2c-4-4-4-1-1,7c6,16.1-4,28.1-153.9,199.9
		c-115.9,134.6-130.9,147.7-142.9,130.6c-7-10-8-9-4,6c6,21.1-41,71.3-174.9,187.9c-30,26.1-70,60.3-89,77.4
		c-19,17.1-43,33.2-52,37.2c-10,3-18,9-18,15.1c0,5-19,21.1-42,36.2c-24,15.1-50,32.2-59,38.2c-125.9,83.4-154.9,100.5-165.9,97.5
		c-7-2-13,2-13,7c0,18.1-79,53.2-102.9,46.2c-15-4-18-4-8,3c17,12.1-3,27.1-24,18.1c-8-3-18,2-23,10c-11,19.1-147.9,75.4-188.9,77.4
		c-20,1-28,4-20,9c8,5,5,8-9,8c-12,0-38,7-57,15.1c-20,8-53,15.1-72,15.1c-20,0-45,5-55,10c-11,6-52,14.1-92,19.1
		c-45,5,266.9,9,799.6,10l871.6,1L3879,3931.5z M1173.4,3551.7c-3-13.1-1-26.1,5-29.1c6-4,11-26.1,11-49.2c0-90.4,23-248.2,37-248.2
		c7,0,13-5,13-11.1c0-5-4-7-10-4c-12,8-12,4,0-70.3c6-33.2,13-82.4,15-110.5c3-27.1,10-63.3,15-80.4c5-16.1,12-55.3,15-85.4
		c4-30.1,11-63.3,16-72.3c5-9,12-43.2,15-75.4c2-31.1,9-62.3,14-68.3c5-6,11-31.1,13-56.3c4-38.2,20-118.6,47-235.1
		c4-16.1,12-29.1,18-28.1c8,2,9-13.1,5-47.2c-6-53.2,1-60.3,33-34.2c15,13.1,16,15.1,2,10c-12-3-15-1-11,10c4,10,9,11.1,17,5
		c8-7,29-2,64,16.1c42,21.1,50,28.1,41,39.2c-7,9-8,14.1-1,14.1c6,0,12-5,14-11.1c3-10,138.9,67.3,145.9,83.4c2,5,10,8,18,8
		s14,3,14,8c0,4,13,13.1,28,20.1c16,6,38,21.1,50,32.2c12,11.1,24,20.1,28,20.1c10,0,181.9,130.6,271.9,205c42,36.2,70,66.3,67,74.3
		c-3,7,0,10,6,7c5-4,26,8,46,27.1c82,75.4,142.9,137.6,142.9,146.7c0,5,11,17.1,25,26.1c13,9,23,22.1,21,29.1c-1,6-1,8,2,4
		c6-12.1,32,13.1,32,31.1c0,8,3,13.1,6,9c9-9,75,73.3,68,85.4c-3,5,4,12.1,16,15.1s19,11.1,16,19.1c-3,8,0,13.1,7,11.1
		c7-1,12,8,11,19.1c0,15.1,4,20.1,14,16.1c11-4,13,1,7,19.1c-4,16.1-3,20.1,3,10c7-10,11-10,17-1c4,7,2,16.1-5,20.1c-9,5-9,9-1,14.1
		c6,4,11,2,11-3c0-23.1,17-10,39,29.1c12,22.1,19,44.2,16,50.2c-4,6,1,7,11,3c12-4,15-3,10,5c-4,7-2,12.1,3,12.1c6,0,11,7,11,15.1
		c0,8,4,15.1,10,15.1c5,0,12,11.1,16,25.1c3,14.1,10,25.1,15,25.1c6,0,5,9-2,21.1c-8,16.1-8,24.1,1,33.2c8,8,10,7,5-5
		c-4-10-2-20.1,4-24.1c11-6,15,7,12,33.2c-1,7,4,11.1,11,10c7-2,12,4,10,14.1c-1,9,7,22.1,18,28.1c24,13.1,27,32.2,3,23.1
		c-15-6-16-5-3,9c21,22.1,42,17.1,65-17.1c12-17.1,29-39.2,38-50.2c8-11.1,32-40.2,52-65.3s43-53.2,51-63.3c19-23.1,15-77.4-5-69.3
		c-10,4-13,1-8-11.1c4-10,2-16.1-6-14.1c-7,1-11-5-9-14.1c1-10-4-16.1-12-15.1c-17,1-165.9-133.6-165.9-151.7c0-7-4-13.1-10-13.1
		c-5,0-10-7-10-16.1c0-9-5-12.1-12-8c-8,5-9,2-5-10c4-9,3-15.1-2-11.1c-12,7-43-54.3-34-68.3c3-5,0-8-7-5c-16,5-74-98.5-66-118.6
		c3-8,0-13.1-7-11.1c-7,1-11-7-10-21.1c2-13.1-1-21.1-6-18.1c-11,7-23-22.1-14-36.2c3-6,1-8-5-5c-14,9-96-252.2-115.9-369.7
		c-3-16.1-8-42.2-12-57.3c-3-17.1-1-28.1,5-28.1c11,0,3-31.1-11-41.2c-25-17.1-34-491.3-9-499.3c5-2,7-20.1,4-40.2
		c-3-28.1-2-33.2,6-22.1c8,12.1,11,8,11-20.1c1-39.2,27-111.5,51-138.7c8-10,18-25.1,21-33.2c7-18.1,101.9-100.5,134.9-118.6
		c12-6,29-8,39-4c13,5,16,3,11-9c-3-10,0-19.1,9-22.1c9-3,12-1,9,4c-3,6-1,10,4,10c6,0,11-6,11-13.1c0-16.1,89-40.2,115.9-31.1
		c16,5,17,4,4-6c-12-9-10-11.1,12-7c15,2,25,1,23-4c-9-14.1,181.9-21.1,290.9-10c114.9,12.1,262.9,36.2,326.8,52.2
		c46,12.1,59,5,51-28.1c-5-20.1-4-24.1,6-18.1c10,6,11,2,7-17.1c-4-14.1,0-47.2,8-74.3c8-27.1,15-54.3,15-61.3
		c0-15.1-44-29.1-104.9-32.2c-27-1-68-6-90-11.1c-22-5-55-10-72-10c-18,0-33-3-33-7c0-5-84-9-187.9-11.1
		c-138.9-2-206.9,1-266.9,12.1c-44,9-89,13.1-99.9,10c-13-3-16-2-7,3c16,12.1-77,36.2-103.9,27.1c-14-4-16-3-5,4
		c11,8,10,12.1-8,21.1c-12,7-27,9-33,5c-7-4-8-3-4,4c4,7,1,12.1-8,12.1c-9,0-16,3-16,8c0,4-18,15.1-41,25.1
		c-46,20.1-183.9,153.7-198.9,192.9c-6,16.1-14,23.1-22,19.1c-7-4-8-3-4,4c4,6,0,22.1-8,35.2c-24,35.2-54,129.6-71,221
		c-26,136.6-19,635,11,790.7c5,29.1,4,33.2-7,22.1c-7-6-13-29.1-12-50.2c0-26.1-1-29.1-4-9c-2,15.1-5,27.1-6,27.1
		c-10,0-190.9-183.9-188.9-191.9c1-6-2-8-7-5c-5,3-20-3-32-14.1c-13-11.1-18-19.1-11-20.1c8,0,6-6-5-18.1c-21-22.1-32-19.1-13,3
		c24,29.1-5,14.1-50-25.1c-24-22.1-47-40.2-51-40.2c-4,0-14-6-21-13.1c-7-7-62-45.2-122.9-85.4c-60-40.2-116.9-77.4-124.9-82.4
		c-8-6-31-18.1-50-28.1c-88-45.2-105.9-60.3-90-76.4c6-6,10-21.1,10-34.2c0-35.2,21-102.5,31-97.5c4,3,5-3,3-12.1
		c-3-10,4-45.2,16-77.4c11-33.2,20-67.3,20-77.4c0-10,6-24.1,13-31.1c6-7,13-22.1,14-33.2c2-27.1,36-118.6,47-126.6
		c5-4,6-11.1,2-17.1c-7-11.1,13-63.3,28-73.3c5-4,5-12.1,2-18.1c-4-6-3-11.1,1-11.1c5,0,15-21.1,22-47.2c8-27.1,21-61.3,30-78.4
		c8-16.1,16-32.2,16-35.2c1-3,8-18.1,15-35.2c8-16.1,14-37.2,15-45.2c0-8,7-14.1,14-12.1c8,2,11-3,8-12.1c-8-20.1,28-94.4,36-75.4
		c4,8,4,3,1-11.1c-3-17.1,2-35.2,15-52.2c12-14.1,21-32.2,21-38.2c0-7,9-27.1,20-46.2c16-24.1,18-34.2,8-40.2c-6-4-59-6-116.9-5
		c-84,2-107.9,6-117.9,19.1c-11,16.1-12,15.1-13-4c0-11.1,5-25.1,12-32.2c9-9,9-12.1,1-12.1c-16,0-26,35.2-18,60.3s-3,62.3-16,55.3
		c-5-3-6,2-2,11.1c5,13.1,3,15.1-7,9c-10-6-12-4-7,8c3,9,0,22.1-7,30.1c-7,7-17,24.1-21,37.2c-4,14.1-16,39.2-26,56.3
		c-11,17.1-19,36.2-19,42.2s-16,44.2-35,85.4c-19,41.2-35,77.4-35,81.4c0,14.1-35,86.4-42,86.4c-4,0-5,7-2,15.1c4,9-1,18.1-11,21.1
		c-9,4-14,13.1-11,21.1c5,13.1-28,117.6-44,138.7c-5,6-14,36.2-21,67.3s-17,54.3-21,52.2c-5-3-8-2-6,3c6,26.1-44,204-58,204
		c-17,0-43-23.1-38-32.2c4-7,3-8-5-4c-12,8-247.9-79.4-266.9-98.5c-6-6-20-63.3-30-126.6c-15-92.4-19-166.8-19-366.7
		c1-137.6,4-280.3,8-316.5s8-74.3,10-85.4c2-18.1-6-21.1-88-28.1c-49-4-97-8-104.9-9c-8,0-18-6-22-11.1c-21-32.2-35,133.6-30,349.6
		c2,77.4,4,172.8,5,213c1,39.2,4,70.3,7,68.3c3-2,6,7,7,18.1c4,59.3,14,141.7,18,148.7c3,4,0,11.1-5,14.1c-7,5-6,11.1,5,19.1
		c24,18.1,9,47.2-18,36.2c-37-15.1-199.9-64.3-226.9-68.3c-13-2-30-8-37-14.1c-8-6-16-8-19-5c-8,8-96-20.1-103.9-33.2
		c-4-6-12,0-20,15.1c-7,14.1-17,25.1-21,25.1c-5,0-6,6-3,13.1c2,7-4,42.2-16,78.4c-11,35.2-20,67.3-20,71.3s33,19.1,74,34.2
		c41,16.1,73,31.1,70,35.2c-5,8,36,24.1,50,20.1c6-1,19,2,30,8c12,5,28,12.1,36,14.1c11,3,8,8-10,15.1c-14,6-19,11.1-12,11.1
		c7,1,22-3,32-9c14-8,38-1,100.9,26.1c46,19.1,88,38.2,94,43.2c5,4,29,13.1,51,20.1c41,13.1,42,14.1,33,45.2
		c-11,39.2-11,39.2,4,33.2c10-4,14,9,15,51.2c1,30.1,5,58.3,10,61.3c12,8,35,168.8,26,183.9c-4,7-3,8,4,4s12-1,13,6
		c1,25.1,17,103.5,33,162.8c15,54.3,24,106.5,30,176.8c1,14.1,8,38.2,14,54.3c10,23.1,10,32.2,0,44.2c-11,13.1-10,15.1,3,10
		c9-3,16-1,16,5c0,7,15,73.3,33,147.7c18,74.3,37,164.8,43,200.9c6,36.2,14,67.3,17,70.3c13,10,39,136.6,33,160.8
		c-4,15.1-2,21.1,5,16.1c6-4,15,14.1,22,46.2c7,36.2,8,54.3,0,56.3c-5,2-10,8-10,14.1s7,8,14,5c10-4,13-1,9,9c-3,7,0,14.1,7,14.1
		c8,0,11,11.1,8,29.1c-2,17.1-1,28.1,3,26.1c10-7,20,41.2,12,61.3c-4,12.1-3,15.1,5,10c8-4,12,0,12,11.1c1,11.1,7,5,15-16.1
		C1172.4,3589.9,1176.4,3564.7,1173.4,3551.7z M176.9,1002.7c2,6,9,9,15,6c7-4,6-9-2-14.1c-20-12.1,0-37.2,131.9-165.8
		c136.9-133.6,313.8-283.3,328.8-278.3c6,1,8-2,4-7c-3-6,20-27.1,52-47.2c32-20.1,61-42.2,65-48.2c7-10,12-2,10,16.1
		c-1,3,6,12.1,15,20.1c14,11.1,16,11.1,8-2c-5-8-10-22.1-12-30.1c-2-16.1,116.9-100.5,141.9-100.5c9,0,14-4,11-8
		c-8-13.1,81-52.2,100.9-46.2c13,4,15,3,5-4c-17-12.1,90-64.3,114.9-56.3c13,4,14,3,5-3c-9-7,5-17.1,48-36.2
		c33-15.1,66-27.1,74-27.1s18-5,22-11.1c3-6,17-9,30-6c13,2,21,1,19-4c-5-7,13-14.1,107.9-40.2c97-27.1,48-32.2-254.9-26.1
		c-165.9,4-489.8,7-719.6,7H80v499.3v499.3l46-50.2C153.9,1007.7,172.9,994.7,176.9,1002.7z M3886,343.6l-3-250.2l-740.6-6
		c-622.7-4-740.6-3-740.6,8c0,8,4,12.1,9,9c11-7,187.9,48.2,187.9,58.3c0,4,11,8,25,8c36,0,79,21.1,63,32.2c-8,5-1,6,16,2
		c22-5,27-4,21,6c-5,9-4,11.1,4,6c6-4,21-4,32-1c17,6,19,9,8,17.1c-10,7-9,8,6,4c23-6,190.9,77.4,187.9,93.4c-2,6,3,8,10,5
		c15-5,126.9,53.2,126.9,67.3c0,5,7,9,16,9c8,0,12,5,9,10c-4,6-3,9,2,8c14-4,53,13.1,53,23.1c0,5,4,9,10,9
		c15,0,239.9,169.8,239.9,180.8c0,6,6,10,14,10c8,0,26,14.1,40,30.1c14,17.1,28,30.1,32,29.1c12-2,93,84.4,87,94.4c-3,6-1,7,6,3
		c14-9,164.9,139.7,155.9,153.7c-3,6,0,9,7,6c7-3,35,22.1,63,55.3l50,59.3l3-245.2C3887,704.3,3887,481.3,3886,343.6z"/>
	<path class="st0" d="M1081.5,2363.1c-11-48.2-27-123.6-37-167.8c-9-44.2-20-98.5-25-120.6c-5-21.1-8-40.2-7-41.2
		c1-1,34,13.1,72,32.2c39,18.1,75,33.2,82,33.2c20,1,23,34.2,9,81.4c-13,44.2-14,44.2-18,15.1c-3-16.1-4-3-4,30.1
		c0,37.2-6,73.3-17,94.4c-10,19.1-15,43.2-11,53.2c3,10,0,18.1-6,18.1c-8,0-10,9-6,24.1c3,14.1,2,27.1-3,30.1
		C1105.4,2448.5,1092.4,2411.3,1081.5,2363.1z"/>
</g>
</svg>
